# xmcd
#
# Track frame offsets:
#	150
#	16101
#	33879
#	47200
#	61401
#	75242
#	91076
#	103039
#	114943
#	141679
#	160385
#	171574
#
# Disc length: 2450 seconds
#
# Revision: 0
# Processed by: cddbd v1.4PL0 Copyright (c) Steve Scherf et al.
# Submitted via: EasyCDDAExtractor 4.6.9.1
#
DISCID=9509900c
DTITLE=Banda El Recodo - Tributo al Amor
DYEAR=2002
DGENRE=Banda
TTITLE0=Te Quejas de Quererme
TTITLE1=Lo Mejor de mi Vida
TTITLE2=Hasta Cuándo
TTITLE3=Como el Primer Día
TTITLE4=No Me Dejes Nunca
TTITLE5=Te lo Pido Por Favor
TTITLE6=Deja
TTITLE7=Mi fracaso
TTITLE8=Homenaje a un Príncipe
TTITLE9=Que Solo Estoy sin Ti
TTITLE10=Tengo Una Ilusión
TTITLE11=Te Sigo Amando
EXTD=
EXTT0=
EXTT1=
EXTT2=
EXTT3=
EXTT4=
EXTT5=
EXTT6=
EXTT7=
EXTT8=
EXTT9=
EXTT10=
EXTT11=
PLAYORDER=
